<mxfile host="app.diagrams.net" modified="2022-05-31T16:07:16.163Z" agent="5.0 (Windows NT 10.0; Win64; x64) AppleWebKit/537.36 (KHTML, like Gecko) Chrome/100.0.4896.162 Safari/537.36" etag="ElYlWvWPeZbQoN-DC5E4" version="18.1.3" type="github">
  <diagram id="oujFDRQerUaZqAzdHEWn" name="Page-1">
    <mxGraphModel dx="1462" dy="789" grid="1" gridSize="10" guides="1" tooltips="1" connect="1" arrows="1" fold="1" page="1" pageScale="1" pageWidth="827" pageHeight="1169" math="0" shadow="0">
      <root>
        <mxCell id="0" />
        <mxCell id="1" parent="0" />
        <mxCell id="atvXXBvYYj4uNepuU7Ez-1" value="a" style="text;strokeColor=none;fillColor=none;html=1;fontSize=24;fontStyle=1;verticalAlign=middle;align=center;" vertex="1" parent="1">
          <mxGeometry x="40" y="110" width="100" height="40" as="geometry" />
        </mxCell>
        <mxCell id="atvXXBvYYj4uNepuU7Ez-2" value="b" style="text;strokeColor=none;fillColor=none;html=1;fontSize=24;fontStyle=1;verticalAlign=middle;align=center;" vertex="1" parent="1">
          <mxGeometry x="40" y="180" width="100" height="40" as="geometry" />
        </mxCell>
        <mxCell id="atvXXBvYYj4uNepuU7Ez-4" value="d" style="text;strokeColor=none;fillColor=none;html=1;fontSize=24;fontStyle=1;verticalAlign=middle;align=center;" vertex="1" parent="1">
          <mxGeometry x="40" y="290" width="100" height="40" as="geometry" />
        </mxCell>
        <mxCell id="atvXXBvYYj4uNepuU7Ez-7" value="" style="group" vertex="1" connectable="0" parent="1">
          <mxGeometry x="180" y="120" width="60" height="50" as="geometry" />
        </mxCell>
        <mxCell id="atvXXBvYYj4uNepuU7Ez-5" value="" style="triangle;whiteSpace=wrap;html=1;strokeWidth=3;" vertex="1" parent="atvXXBvYYj4uNepuU7Ez-7">
          <mxGeometry width="50" height="50" as="geometry" />
        </mxCell>
        <mxCell id="atvXXBvYYj4uNepuU7Ez-6" value="" style="ellipse;whiteSpace=wrap;html=1;aspect=fixed;strokeWidth=3;" vertex="1" parent="atvXXBvYYj4uNepuU7Ez-7">
          <mxGeometry x="50" y="20" width="10" height="10" as="geometry" />
        </mxCell>
        <mxCell id="atvXXBvYYj4uNepuU7Ez-8" value="" style="group" vertex="1" connectable="0" parent="1">
          <mxGeometry x="180" y="190" width="60" height="50" as="geometry" />
        </mxCell>
        <mxCell id="atvXXBvYYj4uNepuU7Ez-9" value="" style="triangle;whiteSpace=wrap;html=1;strokeWidth=3;" vertex="1" parent="atvXXBvYYj4uNepuU7Ez-8">
          <mxGeometry width="50" height="50" as="geometry" />
        </mxCell>
        <mxCell id="atvXXBvYYj4uNepuU7Ez-10" value="" style="ellipse;whiteSpace=wrap;html=1;aspect=fixed;strokeWidth=3;" vertex="1" parent="atvXXBvYYj4uNepuU7Ez-8">
          <mxGeometry x="50" y="20" width="10" height="10" as="geometry" />
        </mxCell>
        <mxCell id="atvXXBvYYj4uNepuU7Ez-11" value="" style="endArrow=classic;html=1;rounded=0;entryX=0;entryY=0.5;entryDx=0;entryDy=0;fillColor=#d5e8d4;strokeColor=#82b366;" edge="1" parent="1" target="atvXXBvYYj4uNepuU7Ez-9">
          <mxGeometry width="50" height="50" relative="1" as="geometry">
            <mxPoint x="30" y="215" as="sourcePoint" />
            <mxPoint x="300" y="210" as="targetPoint" />
          </mxGeometry>
        </mxCell>
        <mxCell id="atvXXBvYYj4uNepuU7Ez-12" value="" style="endArrow=classic;html=1;rounded=0;entryX=0;entryY=0.5;entryDx=0;entryDy=0;fillColor=#dae8fc;strokeColor=#6c8ebf;" edge="1" parent="1">
          <mxGeometry width="50" height="50" relative="1" as="geometry">
            <mxPoint x="29.999999999999886" y="144.66" as="sourcePoint" />
            <mxPoint x="180" y="144.66" as="targetPoint" />
          </mxGeometry>
        </mxCell>
        <mxCell id="atvXXBvYYj4uNepuU7Ez-13" value="" style="endArrow=classic;html=1;rounded=0;entryX=0;entryY=0.5;entryDx=0;entryDy=0;fillColor=#ffe6cc;strokeColor=#d79b00;" edge="1" parent="1">
          <mxGeometry width="50" height="50" relative="1" as="geometry">
            <mxPoint x="28.999999999999886" y="326" as="sourcePoint" />
            <mxPoint x="179" y="326" as="targetPoint" />
          </mxGeometry>
        </mxCell>
        <mxCell id="atvXXBvYYj4uNepuU7Ez-14" value="" style="group" vertex="1" connectable="0" parent="1">
          <mxGeometry x="180" y="300" width="60" height="50" as="geometry" />
        </mxCell>
        <mxCell id="atvXXBvYYj4uNepuU7Ez-15" value="" style="triangle;whiteSpace=wrap;html=1;strokeWidth=3;" vertex="1" parent="atvXXBvYYj4uNepuU7Ez-14">
          <mxGeometry width="50" height="50" as="geometry" />
        </mxCell>
        <mxCell id="atvXXBvYYj4uNepuU7Ez-16" value="" style="ellipse;whiteSpace=wrap;html=1;aspect=fixed;strokeWidth=3;" vertex="1" parent="atvXXBvYYj4uNepuU7Ez-14">
          <mxGeometry x="50" y="20" width="10" height="10" as="geometry" />
        </mxCell>
        <mxCell id="atvXXBvYYj4uNepuU7Ez-20" value="" style="shape=xor;whiteSpace=wrap;html=1;strokeWidth=3;" vertex="1" parent="1">
          <mxGeometry x="340" y="240" width="110" height="80" as="geometry" />
        </mxCell>
        <mxCell id="atvXXBvYYj4uNepuU7Ez-22" value="" style="shape=xor;whiteSpace=wrap;html=1;strokeWidth=3;" vertex="1" parent="1">
          <mxGeometry x="340" y="130" width="110" height="80" as="geometry" />
        </mxCell>
        <mxCell id="atvXXBvYYj4uNepuU7Ez-23" value="" style="endArrow=classic;html=1;rounded=0;entryX=0.175;entryY=0.75;entryDx=0;entryDy=0;entryPerimeter=0;fillColor=#ffe6cc;strokeColor=#d79b00;" edge="1" parent="1" target="atvXXBvYYj4uNepuU7Ez-22">
          <mxGeometry width="50" height="50" relative="1" as="geometry">
            <mxPoint x="150" y="326" as="sourcePoint" />
            <mxPoint x="180" y="260" as="targetPoint" />
            <Array as="points">
              <mxPoint x="150" y="270" />
              <mxPoint x="280" y="270" />
              <mxPoint x="280" y="190" />
            </Array>
          </mxGeometry>
        </mxCell>
        <mxCell id="atvXXBvYYj4uNepuU7Ez-24" value="" style="endArrow=classic;html=1;rounded=0;exitX=1;exitY=0.5;exitDx=0;exitDy=0;entryX=0.175;entryY=0.25;entryDx=0;entryDy=0;entryPerimeter=0;fillColor=#d5e8d4;strokeColor=#82b366;" edge="1" parent="1" source="atvXXBvYYj4uNepuU7Ez-10" target="atvXXBvYYj4uNepuU7Ez-20">
          <mxGeometry width="50" height="50" relative="1" as="geometry">
            <mxPoint x="260" y="260" as="sourcePoint" />
            <mxPoint x="310" y="210" as="targetPoint" />
            <Array as="points">
              <mxPoint x="250" y="215" />
              <mxPoint x="250" y="260" />
              <mxPoint x="270" y="260" />
              <mxPoint x="280" y="250" />
              <mxPoint x="290" y="260" />
            </Array>
          </mxGeometry>
        </mxCell>
        <mxCell id="atvXXBvYYj4uNepuU7Ez-25" value="" style="endArrow=classic;html=1;rounded=0;exitX=1;exitY=0.5;exitDx=0;exitDy=0;entryX=0.175;entryY=0.75;entryDx=0;entryDy=0;entryPerimeter=0;fillColor=#ffe6cc;strokeColor=#d79b00;" edge="1" parent="1" source="atvXXBvYYj4uNepuU7Ez-16" target="atvXXBvYYj4uNepuU7Ez-20">
          <mxGeometry width="50" height="50" relative="1" as="geometry">
            <mxPoint x="260" y="260" as="sourcePoint" />
            <mxPoint x="310" y="210" as="targetPoint" />
            <Array as="points">
              <mxPoint x="250" y="325" />
              <mxPoint x="250" y="300" />
            </Array>
          </mxGeometry>
        </mxCell>
        <mxCell id="atvXXBvYYj4uNepuU7Ez-26" value="" style="endArrow=classic;html=1;rounded=0;exitX=1;exitY=0.5;exitDx=0;exitDy=0;entryX=0.175;entryY=0.25;entryDx=0;entryDy=0;entryPerimeter=0;fillColor=#dae8fc;strokeColor=#6c8ebf;" edge="1" parent="1" source="atvXXBvYYj4uNepuU7Ez-6" target="atvXXBvYYj4uNepuU7Ez-22">
          <mxGeometry width="50" height="50" relative="1" as="geometry">
            <mxPoint x="260" y="220" as="sourcePoint" />
            <mxPoint x="310" y="170" as="targetPoint" />
            <Array as="points">
              <mxPoint x="280" y="145" />
              <mxPoint x="280" y="150" />
            </Array>
          </mxGeometry>
        </mxCell>
        <mxCell id="atvXXBvYYj4uNepuU7Ez-27" value="" style="shape=delay;whiteSpace=wrap;html=1;strokeWidth=3;" vertex="1" parent="1">
          <mxGeometry x="540" y="190" width="80" height="60" as="geometry" />
        </mxCell>
        <mxCell id="atvXXBvYYj4uNepuU7Ez-28" value="" style="endArrow=classic;html=1;rounded=0;entryX=-0.018;entryY=0.664;entryDx=0;entryDy=0;entryPerimeter=0;exitX=1;exitY=0.5;exitDx=0;exitDy=0;exitPerimeter=0;fillColor=#e1d5e7;strokeColor=#9673a6;" edge="1" parent="1" source="atvXXBvYYj4uNepuU7Ez-20" target="atvXXBvYYj4uNepuU7Ez-27">
          <mxGeometry width="50" height="50" relative="1" as="geometry">
            <mxPoint x="360" y="280" as="sourcePoint" />
            <mxPoint x="410" y="230" as="targetPoint" />
            <Array as="points">
              <mxPoint x="480" y="280" />
              <mxPoint x="480" y="230" />
            </Array>
          </mxGeometry>
        </mxCell>
        <mxCell id="atvXXBvYYj4uNepuU7Ez-29" value="" style="endArrow=classic;html=1;rounded=0;exitX=1;exitY=0.5;exitDx=0;exitDy=0;exitPerimeter=0;fillColor=#e1d5e7;strokeColor=#9673a6;" edge="1" parent="1" source="atvXXBvYYj4uNepuU7Ez-22">
          <mxGeometry width="50" height="50" relative="1" as="geometry">
            <mxPoint x="400" y="190" as="sourcePoint" />
            <mxPoint x="540" y="210" as="targetPoint" />
            <Array as="points">
              <mxPoint x="480" y="170" />
              <mxPoint x="480" y="210" />
            </Array>
          </mxGeometry>
        </mxCell>
        <mxCell id="atvXXBvYYj4uNepuU7Ez-30" value="" style="endArrow=classic;html=1;rounded=0;exitX=1;exitY=0.5;exitDx=0;exitDy=0;fillColor=#e1d5e7;strokeColor=#9673a6;" edge="1" parent="1" source="atvXXBvYYj4uNepuU7Ez-27">
          <mxGeometry width="50" height="50" relative="1" as="geometry">
            <mxPoint x="570" y="210" as="sourcePoint" />
            <mxPoint x="680" y="220" as="targetPoint" />
          </mxGeometry>
        </mxCell>
        <mxCell id="atvXXBvYYj4uNepuU7Ez-31" value="F" style="text;strokeColor=none;fillColor=none;html=1;fontSize=24;fontStyle=1;verticalAlign=middle;align=center;" vertex="1" parent="1">
          <mxGeometry x="600" y="180" width="100" height="40" as="geometry" />
        </mxCell>
      </root>
    </mxGraphModel>
  </diagram>
</mxfile>
